<?xml version="1.0" standalone="no"?>
<!DOCTYPE svg PUBLIC "-//W3C//DTD SVG 20010904//EN"
 "http://www.w3.org/TR/2001/REC-SVG-20010904/DTD/svg10.dtd">
<svg version="1.0" xmlns="http://www.w3.org/2000/svg"
 width="577.000000pt" height="577.000000pt" viewBox="0 0 577.000000 577.000000"
 preserveAspectRatio="xMidYMid meet">
<metadata>
Created by potrace 1.11, written by Peter Selinger 2001-2013
</metadata>
<g transform="translate(0.000000,577.000000) scale(0.100000,-0.100000)"
fill="#000000" stroke="none">
<path d="M2695 5280 c-165 -14 -403 -69 -583 -134 -264 -95 -568 -286 -771
-483 -103 -101 -105 -104 -71 -99 19 3 87 12 150 22 l115 17 75 72 c94 89 160
138 276 202 213 117 436 186 727 223 619 79 1253 -86 1595 -414 75 -72 103
-108 166 -209 31 -50 124 -352 131 -424 l6 -68 -207 -210 c-115 -115 -505
-509 -869 -875 -363 -366 -703 -710 -755 -765 -269 -285 -471 -507 -466 -512
2 -2 165 -8 362 -14 611 -17 1349 14 1899 81 88 10 208 24 268 31 l107 13 43
70 c153 250 252 527 303 846 26 160 26 507 1 670 -91 575 -367 1066 -812 1440
-124 105 -291 212 -458 293 -391 191 -787 264 -1232 227z"/>
<path d="M1320 4355 c-8 -2 -76 -11 -151 -21 l-135 -17 -24 -36 c-198 -293
-328 -634 -375 -981 -19 -138 -19 -492 0 -630 25 -189 77 -382 148 -555 46
-112 58 -136 114 -238 117 -210 249 -383 409 -537 81 -78 114 -107 213 -187
80 -65 267 -179 396 -242 239 -118 513 -197 771 -222 185 -18 478 -7 644 26
421 81 804 270 1115 548 97 87 230 225 224 232 -3 2 -43 -2 -90 -10 -315 -53
-815 -101 -1207 -116 -527 -21 -1298 6 -1517 52 -27 6 -96 34 -153 62 -222
109 -353 289 -369 510 l-6 78 854 852 c470 469 883 884 919 922 218 235 308
337 283 322 -9 -6 -1116 -10 -1932 -7 l-64 0 6 83 c3 45 9 90 12 100 6 14 1
17 -31 16 -22 -1 -46 -3 -54 -4z"/>
</g>
</svg>
